<svg id="Icons" xmlns="http://www.w3.org/2000/svg" viewBox="0 0 66 66"><defs><style>.cls-1{fill:#21a39d;}.cls-2{fill:#1cbbb4;}.cls-3{opacity:0.15;}.cls-4{fill:#fffcf2;}</style></defs><title>music</title><g id="Music"><g id="Circle_Shadow" data-name="Circle Shadow"><circle class="cls-1" cx="33" cy="34" r="31"/></g><g id="Circle"><circle class="cls-2" cx="33" cy="32" r="31"/></g><path id="Long_Shadow" data-name="Long Shadow" class="cls-3" d="M63.85,35,45.41,16.58,27,22.54V43l-8,3.43L35.49,62.89A31,31,0,0,0,63.85,35Z"/><g id="Music_Note" data-name="Music Note"><path class="cls-4" d="M44,16a2,2,0,0,0-.36,0h0l-.07,0L27.64,20h0A2,2,0,0,0,26,22V40.82A5.8,5.8,0,0,0,23,40c-2.76,0-5,1.79-5,4s2.24,4,5,4,5-1.79,5-4h0V28.06l16-4V36.82A5.8,5.8,0,0,0,41,36c-2.76,0-5,1.79-5,4s2.24,4,5,4,5-1.79,5-4V18A2,2,0,0,0,44,16Z"/></g></g></svg>